<?xml version="1.0" encoding="utf-8"?>
<!-- Generator: Adobe Illustrator 16.0.3, SVG Export Plug-In . SVG Version: 6.00 Build 0)  -->
<!DOCTYPE svg PUBLIC "-//W3C//DTD SVG 1.1//EN" "http://www.w3.org/Graphics/SVG/1.1/DTD/svg11.dtd">
<svg version="1.1" id="Layer_1" xmlns="http://www.w3.org/2000/svg" xmlns:xlink="http://www.w3.org/1999/xlink" x="0px" y="0px"
	 width="20px" height="20px" viewBox="0 0 20 20" enable-background="new 0 0 20 20" xml:space="preserve">
<g>
	<path fill="#E0E0E0" d="M6.207,4L2,8.207V6.793L4.793,4H6.207z"/>
	<path fill="#E0E0E0" d="M13.207,4l-1.464,1.464c-0.319-0.183-0.665-0.315-1.024-0.39L11.793,4H13.207z"/>
	<path fill="#E0E0E0" d="M12.12,7.173c-0.497-0.797-1.401-1.247-2.337-1.163c-1.376,0.12-2.394,1.332-2.275,2.707
		c0.12,1.375,1.331,2.394,2.707,2.274c1.376-0.119,2.395-1.331,2.275-2.707c-0.035-0.395-0.162-0.775-0.372-1.111L12.12,7.173z"/>
	<path fill="#E0E0E0" d="M12.84,6.453c0.204,0.283,0.367,0.597,0.48,0.935l3.375-3.375C16.631,4.004,16.565,4,16.5,4h-1.207
		L12.84,6.453z"/>
	<path fill="#E0E0E0" d="M7.5,12C6.672,12,6,12.672,6,13.5V16h8v-2.5c0.001-0.827-0.668-1.499-1.496-1.5c-0.002,0-0.002,0-0.004,0
		H7.5z"/>
	<path fill="#E0E0E0" d="M12.5,11c0.217,0,0.427,0.027,0.628,0.08L18,6.206V5.5c0-0.209-0.043-0.407-0.12-0.588l-4.5,4.501
		c-0.163,0.603-0.483,1.15-0.93,1.587H12.5z"/>
	<path fill="#E0E0E0" d="M14.408,11.885c0.225,0.266,0.395,0.577,0.494,0.92L18,9.707V8.293L14.408,11.885z"/>
	<path fill="#E0E0E0" d="M15,16v-1.207l3-3v1.414L15.207,16H15z"/>
	<path fill="#E0E0E0" d="M5,15.707v-1.414l-1.695,1.695C3.369,15.996,3.435,16,3.5,16h1.207L5,15.707z"/>
	<path fill="#E0E0E0" d="M6.574,9.219c0.076,0.365,0.21,0.71,0.39,1.024L2.12,15.088C2.041,14.902,2,14.702,2,14.5v-0.707
		L6.574,9.219z"/>
	<path fill="#E0E0E0" d="M9.707,4L2,11.707v-1.414L8.293,4H9.707z"/>
</g>
</svg>
