<?xml version="1.0" encoding="utf-8"?>
<!-- Generator: Adobe Illustrator 16.0.3, SVG Export Plug-In . SVG Version: 6.00 Build 0)  -->
<!DOCTYPE svg PUBLIC "-//W3C//DTD SVG 1.1//EN" "http://www.w3.org/Graphics/SVG/1.1/DTD/svg11.dtd">
<svg version="1.1" id="Layer_1" xmlns="http://www.w3.org/2000/svg" xmlns:xlink="http://www.w3.org/1999/xlink" x="0px" y="0px"
	 width="16px" height="16px" viewBox="0 0 16 16" enable-background="new 0 0 16 16" xml:space="preserve">
<g>
	<path fill="#E0E0E0" d="M13.572,2.382c0.418,0.206,0.733,0.59,0.943,1.174c0.108,0.313-0.057,0.655-0.371,0.764
		c-0.309,0.107-0.646-0.052-0.759-0.359c-0.135-0.375-0.276-0.47-0.345-0.502C12.942,3.409,12.824,3.4,12.575,3.4
		c-0.195,0-0.312,0.06-0.396,0.136c-0.096,0.085-0.181,0.22-0.245,0.395c-0.082,0.227-0.128,0.465-0.134,0.706v0.008
		c0,0.325,0.006,0.712,0.131,1.031c0.057,0.149,0.134,0.261,0.231,0.342c0.094,0.078,0.237,0.152,0.479,0.178
		c0.073,0.008,0.231,0.008,0.386-0.049c0.172-0.063,0.309-0.194,0.376-0.363c0.145-0.298,0.503-0.422,0.802-0.278
		c0.286,0.139,0.414,0.477,0.291,0.771c-0.508,1.129-1.627,1.153-1.987,1.113c-0.447-0.049-0.817-0.205-1.111-0.447
		c-0.263-0.222-0.464-0.507-0.584-0.83C10.6,5.565,10.6,4.972,10.6,4.667V4.607l0.004-0.075c0.018-0.349,0.087-0.692,0.207-1.02
		c0.106-0.286,0.279-0.612,0.57-0.872c0.303-0.27,0.702-0.44,1.194-0.44h0.028C12.822,2.2,13.201,2.199,13.572,2.382z M3.757,2.2
		C4.008,2.203,4.23,2.363,4.314,2.6l1.419,4c0.105,0.314-0.064,0.654-0.378,0.759C5.048,7.462,4.715,7.303,4.603,7L4.531,6.8H2.843
		L2.76,7.016C2.641,7.325,2.293,7.479,1.984,7.36C1.675,7.241,1.521,6.894,1.64,6.584l0,0l1.549-4C3.279,2.35,3.506,2.197,3.757,2.2
		z M3.725,4.525L3.308,5.6h0.797L3.723,4.525H3.725z M4.24,8.602C4.553,8.625,4.795,8.886,4.795,9.2v4c0,0.331-0.269,0.6-0.6,0.6
		c-0.332,0-0.6-0.269-0.6-0.6v-2.16c-0.052,0.04-0.104,0.077-0.158,0.112C3.163,11.34,2.79,11.27,2.603,10.996
		c-0.187-0.274-0.117-0.647,0.157-0.834c0.003-0.003,0.007-0.006,0.011-0.008C3.219,9.855,3.54,9.384,3.609,9.071
		C3.672,8.778,3.942,8.577,4.24,8.602L4.24,8.602z M7.868,9.8C7.621,9.8,7.4,10.032,7.4,10.291c0,0.332-0.269,0.6-0.6,0.6
		c-0.331,0-0.6-0.268-0.6-0.6C6.2,9.459,6.872,8.6,7.868,8.6c0.568,0,1.124,0.266,1.44,0.751c0.333,0.512,0.333,1.168-0.033,1.79
		c-0.188,0.319-0.441,0.555-0.676,0.74c-0.119,0.094-0.239,0.18-0.349,0.258l-0.048,0.033c-0.095,0.066-0.18,0.127-0.263,0.189
		c-0.112,0.084-0.206,0.162-0.281,0.238h1.296c0.332,0,0.6,0.27,0.6,0.601s-0.268,0.6-0.6,0.6H6.841
		c-0.014,0.001-0.028,0.001-0.042,0c-0.332,0-0.6-0.269-0.6-0.6c0-0.927,0.55-1.446,1.019-1.798
		c0.098-0.074,0.201-0.146,0.294-0.212l0.044-0.032c0.11-0.077,0.208-0.146,0.298-0.219c0.182-0.145,0.306-0.272,0.386-0.406
		c0.168-0.289,0.112-0.45,0.062-0.528C8.232,9.898,8.077,9.8,7.868,9.8L7.868,9.8z M11.777,10.092
		c0.021-0.068,0.059-0.13,0.112-0.178C11.942,9.868,12.05,9.8,12.277,9.8c0.395,0,0.477,0.248,0.477,0.31
		c0,0.135-0.029,0.25-0.087,0.322c-0.036,0.045-0.155,0.168-0.569,0.168c-0.332,0-0.6,0.27-0.6,0.601s0.268,0.6,0.6,0.6
		c0.162,0,0.37,0.022,0.517,0.091c0.042,0.018,0.079,0.044,0.108,0.079c0.01,0.014,0.031,0.048,0.031,0.14
		c0,0.268-0.081,0.357-0.123,0.394c-0.061,0.051-0.175,0.097-0.354,0.097c-0.209,0-0.305-0.037-0.352-0.065
		c-0.036-0.022-0.099-0.075-0.155-0.249c-0.107-0.313-0.448-0.48-0.763-0.373c-0.308,0.105-0.475,0.438-0.377,0.748
		c0.122,0.371,0.328,0.684,0.652,0.888c0.313,0.198,0.664,0.252,0.994,0.252c0.36,0,0.784-0.091,1.127-0.38
		c0.362-0.306,0.551-0.76,0.551-1.311c0.005-0.346-0.115-0.68-0.34-0.942c0.289-0.371,0.34-0.796,0.34-1.058
		c0-0.738-0.636-1.51-1.678-1.51c-0.503,0-0.896,0.162-1.182,0.414c-0.225,0.199-0.389,0.459-0.472,0.748
		c-0.097,0.317,0.081,0.653,0.397,0.75c0.316,0.098,0.652-0.08,0.75-0.396C11.773,10.107,11.775,10.1,11.777,10.092z M6.4,2.8v4
		c0,0.332,0.269,0.6,0.6,0.6c0.033,0,0.065-0.002,0.098-0.008V7.4H8.4c0.19,0,0.586-0.029,0.956-0.244
		c0.416-0.243,0.738-0.688,0.738-1.363c0-0.336-0.072-0.635-0.226-0.886c-0.063-0.103-0.14-0.197-0.227-0.28
		c0.122-0.223,0.193-0.496,0.193-0.82c0-0.327-0.064-0.618-0.2-0.864C9.514,2.718,9.33,2.533,9.107,2.408
		C8.736,2.2,8.341,2.2,8.207,2.2H7C6.668,2.2,6.4,2.469,6.4,2.8L6.4,2.8z M8.4,6.2H7.6V5.4h0.749c0.153,0,0.304,0.008,0.413,0.062
		c0.043,0.021,0.064,0.042,0.082,0.07c0.018,0.028,0.051,0.102,0.051,0.262C8.9,5.875,8.883,5.957,8.846,6.03
		C8.824,6.067,8.791,6.098,8.753,6.118C8.644,6.173,8.523,6.201,8.4,6.2L8.4,6.2z M7.698,4.2H7.6V3.4h0.6
		c0.125,0,0.241,0.01,0.318,0.055c0.027,0.014,0.05,0.037,0.063,0.064c0.02,0.035,0.053,0.119,0.053,0.288
		c0.006,0.085-0.011,0.17-0.047,0.248C8.569,4.086,8.543,4.113,8.512,4.131C8.423,4.177,8.325,4.201,8.226,4.2H7.698z"/>
</g>
</svg>
