<svg xmlns="http://www.w3.org/2000/svg" xmlns:xlink="http://www.w3.org/1999/xlink" xmlns:svgjs="http://svgjs.com/svgjs" width="288" height="288" version="1.1" style=""><rect id="backgroundrect" width="100%" height="100%" x="0" y="0" fill="none" stroke="none"/><defs id="SvgjsDefs1002"/><g class="currentLayer" style=""><title>Layer 1</title><g id="SvgjsG1008" class="" fill="#eaa22e" fill-opacity="1"><svg xmlns="http://www.w3.org/2000/svg" width="288" height="288" viewBox="0 0 16 16" id="svg_3"><path fill="#eaa22e" d="m6 3a5 5 0 0 0 -4.3301 2.5 5 5 0 0 0 0 5 5 5 0 0 0 4.3301 2.5h1v-2h-1a3 3 0 0 1 -3-3 3 3 0 0 1 3-3h1v-2zm3 0v2h1a3 3 0 0 1 3 3 3 3 0 0 1 -3 3h-1v2h1a5 5 0 0 0 4.3301-2.5 5 5 0 0 0 0-5 5 5 0 0 0 -4.3301-2.5zm-3 4a.99998.99998 0 0 0 -1 1 .99998.99998 0 0 0 1 1h4a.99998.99998 0 0 0 1-1 .99998.99998 0 0 0 -1-1z" class="color8eef97 svgShape" id="svg_4" fill-opacity="1"/></svg></g></g></svg>