<svg xmlns="http://www.w3.org/2000/svg" xmlns:xlink="http://www.w3.org/1999/xlink" width="16" height="16" preserveAspectRatio="xMidYMid meet" style="transform: rotate(360deg);"><rect id="backgroundrect" width="100%" height="100%" x="0" y="0" fill="none" stroke="none"/><g class="currentLayer" style=""><title>Layer 1</title><path fill-rule="evenodd" d="M11.75 2.5a.75.75 0 1 0 0 1.5a.75.75 0 0 0 0-1.5zm-2.25.75a2.25 2.25 0 1 1 3 2.122V6A2.5 2.5 0 0 1 10 8.5H6a1 1 0 0 0-1 1v1.128a2.251 2.251 0 1 1-1.5 0V5.372a2.25 2.25 0 1 1 1.5 0v1.836A2.492 2.492 0 0 1 6 7h4a1 1 0 0 0 1-1v-.628A2.25 2.25 0 0 1 9.5 3.25zM4.25 12a.75.75 0 1 0 0 1.5a.75.75 0 0 0 0-1.5zM3.5 3.25a.75.75 0 1 1 1.5 0a.75.75 0 0 1-1.5 0z" fill="#eaa22e" id="svg_1" class="" fill-opacity="1"/></g></svg>