<svg xmlns="http://www.w3.org/2000/svg" height="16" width="16" style=""><rect id="backgroundrect" width="100%" height="100%" x="0" y="0" fill="none" stroke="none"/><g class="currentLayer" style=""><title>Layer 1</title><path d="m4 2a1 1 0 0 0 -1 1 1 1 0 0 0 1 1c4.4301 0 8 3.5699 8 8a1 1 0 0 0 1 1 1 1 0 0 0 1-1c0-5.511-4.489-10-10-10zm0 4a1 1 0 0 0 -1 1 1 1 0 0 0 1 1c2.221 0 4 1.779 4 4a1 1 0 0 0 1 1 1 1 0 0 0 1-1c0-3.3018-2.6981-6-6-6zm0 4a2 2 0 0 0 -2 2 2 2 0 0 0 2 2 2 2 0 0 0 2-2 2 2 0 0 0 -2-2z" fill="#eaa22e" id="svg_1" class="selected" fill-opacity="1"/></g></svg>