<svg xmlns="http://www.w3.org/2000/svg" height="16" width="16"><rect id="backgroundrect" width="100%" height="100%" x="0" y="0" fill="none" stroke="none"/><g class="currentLayer" style=""><title>Layer 1</title><g fill="#eaa22e" id="svg_1" class="selected" fill-opacity="1"><path d="m8.630737942799998,2.34659261082 v-0.49928243667999994 h0.40730348879999995 c0.3116103588,0 0.5642122824,-0.24917274492 0.5642122824,-0.5564913084399999 s-0.25262986319999997,-0.5565188657 -0.5642122824,-0.5565188657 h-1.9430315423999998 c-0.3116103588,0 -0.5642122824,0.24917274492 -0.5642122824,0.5564913084399999 s0.25262986319999997,0.5564913084399999 0.5642122824,0.5564913084399999 h0.40730348879999995 v0.49928243667999994 c-3.2368864788,0.28257214404 -5.7836648376,2.97125133046 -5.7836648376,6.2360150371800005 c0,3.45234597554 2.8476599111999996,6.26103702926 6.3479050595999995,6.26103702926 s6.3479050595999995,-2.80869105372 6.3479050595999995,-6.26103702926 c-0.000027939600000000006,-3.2647637067199997 -2.5468342379999998,-5.95344289314 -5.7837207167999996,-6.23598747992 zm0,11.353839135340001 v-0.55456230024 c0,-0.30734612078 -0.25262986319999997,-0.5564913084399999 -0.5642122824,-0.5564913084399999 c-0.3116103588,0 -0.5642122824,0.24917274492 -0.5642122824,0.5564913084399999 v0.55456230024 c-2.428230636,-0.2586248851 -4.3624053252,-2.16638643764 -4.6246184712,-4.56133278972 h0.5622565103999999 c0.3116103588,0 0.5642122824,-0.24917274492 0.5642122824,-0.5564913084399999 s-0.25262986319999997,-0.5564913084399999 -0.5642122824,-0.5564913084399999 h-0.5622844499999999 c0.26221314599999995,-2.3950014666 2.1964437144,-4.30270790462 4.6246184712,-4.56136034698 v0.55456230024 c0,0.30734612078 0.25262986319999997,0.5564913084399999 0.5642122824,0.5564913084399999 c0.3116103588,0 0.5642122824,-0.24917274492 0.5642122824,-0.5564913084399999 v-0.55461741476 c2.428230636,0.2586248851 4.3624053252,2.16638643764 4.6246184712,4.56136034698 h-0.5622565103999999 c-0.3116103588,0 -0.5642122824,0.24917274492 -0.5642122824,0.5564913084399999 s0.25262986319999997,0.5564913084399999 0.5642122824,0.5564913084399999 h0.5623123896 c-0.26221314599999995,2.39502902386 -2.1964157747999997,4.3027905764 -4.6246464108,4.56138790424 z" stroke-width="0" id="svg_2" fill="#eaa22e" fill-opacity="1"/><path d="m9.7777982208,6.107690127400001 l-1.6254979884,1.6032813868 c-0.028246935599999995,-0.0026730542200000007 -0.05682914639999999,-0.004161146260000001 -0.0858025116,-0.004161146260000001 c-0.49039585919999995,0 -0.8878925484,0.39211225254 -0.8878925484,0.87574216554 c0,0.48368502752 0.39752462879999995,0.87574216554 0.8878925484,0.87574216554 s0.8878925484,-0.39211225254 0.8878925484,-0.87574216554 c0,-0.02857687862 -0.0015087384000000003,-0.0567679556 -0.0042188796,-0.0846007882 l1.6254700487999998,-1.6032813868 c0.2203596252,-0.2172889951 0.2203596252,-0.56966367872 0,-0.7870077883400001 c-0.22021992719999997,-0.21731655236 -0.5774835924,-0.21731655236 -0.7978432176,0.000027557260000000005 z" stroke-width="0" id="svg_3" fill="#eaa22e" fill-opacity="1"/></g></g></svg>