<svg xmlns="http://www.w3.org/2000/svg" xmlns:xlink="http://www.w3.org/1999/xlink" width="16" height="16" preserveAspectRatio="xMidYMid meet" style="-ms-transform: rotate(360deg); -webkit-transform: rotate(360deg); transform: rotate(360deg);"><rect id="backgroundrect" width="100%" height="100%" x="0" y="0" fill="none" stroke="none"/><g class="currentLayer" style=""><title>Layer 1</title><g fill="#e0e0e0" id="svg_1" class="" fill-opacity="1"><path d="M5.5 2A1.5 1.5 0 0 0 4 3.5V4H3a2 2 0 0 0-2 2v4.5A1.5 1.5 0 0 0 2.5 12H4v.5A1.5 1.5 0 0 0 5.5 14h5.1a1.5 1.5 0 0 0 1.5-1.5V12h1.4a1.5 1.5 0 0 0 1.5-1.5V6a2 2 0 0 0-2-2h-1v-.5A1.5 1.5 0 0 0 10.5 2h-5zM11 4H5v-.5a.5.5 0 0 1 .5-.5h5a.5.5 0 0 1 .5.5V4zm-5.5 6h5.1a.5.5 0 0 1 .5.5v2a.5.5 0 0 1-.5.5H5.5a.5.5 0 0 1-.5-.5v-2a.5.5 0 0 1 .5-.5z" fill="#e0e0e0" id="svg_2"/></g></g></svg>