<?xml version="1.0" encoding="utf-8"?>
<!-- Generator: Adobe Illustrator 16.0.3, SVG Export Plug-In . SVG Version: 6.00 Build 0)  -->
<!DOCTYPE svg PUBLIC "-//W3C//DTD SVG 1.1//EN" "http://www.w3.org/Graphics/SVG/1.1/DTD/svg11.dtd">
<svg version="1.1" id="Layer_1" xmlns="http://www.w3.org/2000/svg" xmlns:xlink="http://www.w3.org/1999/xlink" x="0px" y="0px"
	 width="24px" height="24px" viewBox="0 0 24 24" enable-background="new 0 0 24 24" xml:space="preserve">
<g>
	<path fill="#E0E0E0" d="M19,21H5c-1.104,0-2-0.896-2-2V5c0-1.104,0.896-2,2-2h14c1.104,0,2,0.896,2,2v14C21,20.104,20.104,21,19,21
		z M5,5v14h14V5H5z M18,17H6l3-4l1,1l3-4L18,17z M8.5,11C7.671,11,7,10.329,7,9.5S7.671,8,8.5,8S10,8.671,10,9.5S9.329,11,8.5,11z"
		/>
</g>
</svg>
